<?xml version="1.0" standalone="no"?>
<!DOCTYPE svg PUBLIC "-//W3C//DTD SVG 20010904//EN"
 "http://www.w3.org/TR/2001/REC-SVG-20010904/DTD/svg10.dtd">
<svg version="1.0" xmlns="http://www.w3.org/2000/svg"
 width="16.000000pt" height="16.000000pt" viewBox="0 0 16.000000 16.000000"
 preserveAspectRatio="xMidYMid meet">
<metadata>
Created by potrace 1.11, written by Peter Selinger 2001-2013
</metadata>
<g transform="translate(0.000000,16.000000) scale(0.003125,-0.003125)"
fill="#000000" stroke="none">
<path d="M3539 4435 c-160 -25 -353 -83 -534 -161 -87 -37 -94 -38 -210 -39
-87 -1 -134 -6 -172 -19 -29 -10 -53 -20 -53 -23 0 -3 16 -27 35 -53 l35 -48
-57 -32 c-173 -98 -453 -302 -660 -483 -143 -124 -386 -367 -478 -476 l-60
-72 -110 6 c-60 4 -119 9 -130 11 -16 4 -30 -11 -73 -85 -87 -147 -111 -212
-113 -311 -2 -81 -3 -82 -9 -30 -5 41 -7 19 -8 -82 l-2 -136 -79 -161 c-135
-276 -209 -509 -231 -737 -36 -355 91 -631 344 -754 132 -64 243 -83 436 -77
224 8 414 53 681 162 831 339 1729 1176 2148 2004 120 236 185 414 228 621 35
168 36 375 4 494 -70 260 -242 423 -503 476 -110 23 -298 25 -429 5z m116
-478 l280 -92 33 -63 c49 -92 65 -182 59 -332 -11 -253 -116 -543 -310 -855
-59 -94 -188 -275 -196 -275 -3 1 -298 72 -656 159 l-650 157 -95 -84 c-77
-68 -294 -224 -373 -268 -15 -8 -24 -88 -72 -586 -30 -317 -55 -581 -55 -587
0 -16 -121 -14 -205 4 -146 31 -280 127 -339 244 -40 78 -66 192 -66 285 0
145 91 447 209 691 193 401 509 792 894 1107 365 298 711 483 1052 563 160 38
173 36 490 -68z"/>
</g>
</svg>
